<mxfile host="app.diagrams.net" modified="2023-11-25T16:58:13.858Z" agent="Mozilla/5.0 (Windows NT 10.0; Win64; x64) AppleWebKit/537.36 (KHTML, like Gecko) Chrome/118.0.0.0 Safari/537.36" version="22.1.4" etag="1_hMEaskGFfg6lN7gxz7" type="github">
  <diagram name="Page-1" id="cBukKG2hsejslxERuU5p">
    <mxGraphModel>
      <root>
        <mxCell id="0" />
        <mxCell id="1" parent="0" />
      </root>
    </mxGraphModel>
  </diagram>
</mxfile>
